<svg id="Capa_1" enable-background="new 0 0 501 501" height="512" viewBox="0 0 501 501" width="512" xmlns="http://www.w3.org/2000/svg"><g><path d="m112.428 458.417c-64.655-44.187-107.057-118.546-106.928-202.8.207-135.091 110.819-245.106 245.909-244.615 126.448.459 230.319 96.711 242.827 219.967.042.417-.401.712-.77.51-36.697-20.054-78.97-31.479-123.966-31.479-140.833 0-255 111.929-255 250 0 2.413.035 4.817.104 7.213.033 1.139-1.235 1.847-2.176 1.204z" fill="#453d83"/><path d="m379.5 70c10.851 0 21.586.501 32.181 1.481 45.471 39.753 76.117 96.042 82.556 159.487.042.417-.401.711-.77.51-36.698-20.053-78.971-31.478-123.967-31.478-140.833 0-255 111.929-255 250 0 2.413.035 4.817.104 7.213.033 1.139-1.236 1.846-2.176 1.204-31.169-21.302-57.166-49.615-75.719-82.669 19.485-172.056 165.525-305.748 342.791-305.748z" fill="#5f55af"/><path d="m250.5 501c-44.675 0-86.557-11.958-122.621-32.847-20.493-32.824-32.336-71.606-32.336-113.153 0-118.165 95.792-213.957 213.957-213.957 104.847 0 155.083 61.863 174.999 97.435 7.77 13.878-4.43 113.604-27.87 150-5.273 8.188-11.021 16.041-17.205 23.521-2.025 2.45-12.807 2.132-14.924 4.5-2.363 2.643 3.928 7.962 1.454 10.5-14.827 15.211-31.615 28.5-49.956 39.46-2.321 1.387-6.003-6.022-8.373-4.711-3.364 1.862-5.442 12.406-8.901 14.112-28.066 13.841-59.165 22.467-92.033 24.611-2.748.179-6.42-6.249-9.191-6.161-2.402.076-3.901 6.68-6.32 6.687-.226.003-.453.003-.68.003z" fill="#3493f8"/><path d="m295.001 496.968c-9.265 1.7-18.712 2.879-28.31 3.505-2.636.172-6.533-6.249-9.191-6.161-2.514.083-3.788 6.68-6.32 6.687-.226.001-.453.001-.68.001-39.833 0-77.445-9.506-110.693-26.373-7.928-4.022-14.493-10.328-18.716-18.151-15.971-29.59-25.174-63.371-25.537-99.268-1.187-117.381 93.319-214.397 210.693-216.141 16.397-.244 32.379 1.358 47.752 4.61-96.807 20.479-169.456 106.417-169.456 209.323 0 9.37.602 18.599 1.77 27.651 7.395 57.311 51.047 103.534 107.847 114.162.28.052.56.104.841.155z" fill="#1380e2"/><path d="m431.928 205.809c29.852-12.204 63.541 54.781 63.478 57.064-1.273 46.203-15.337 89.209-38.777 125.606-11.185-2.009-25.253-4.449-43.795-6.812-47.813-6.095-72.045-8.932-88 1.333-25.617 16.482-14.906 41.666-41.333 64-32.982 27.874-91.703 24.173-103.333 3.333-8.711-15.609 12.65-34.29 2-50.667-9.803-15.075-32.542-6.385-46-23.333-8.257-10.398-12.631-29.955-4.667-40.667 12.939-17.404 51.992-2.774 146-1.333 14.69.225 26.5.063 36-8 21.403-18.168 2.255-51.981 21.333-70 21.41-20.22 65.089 3.882 78.667-16.667 5.65-8.551-.588-14.729 4.667-23.333 2.701-4.424 7.515-7.971 13.76-10.524z" fill="#82cd64"/><path d="m231.563 466.66c-23.393 1.701-44.852-4.599-51.396-16.327-8.711-15.609 12.65-34.29 2-50.667-9.803-15.075-32.542-6.385-46-23.333-8.257-10.398-12.631-29.955-4.667-40.667 7.515-10.108 23.838-9.411 54.619-6.767-1.04 8.555-1.576 17.265-1.576 26.101 0 9.369.602 18.598 1.77 27.65 4.307 33.378 20.912 62.995 45.25 84.01z" fill="#6dc54a"/><path d="m114.88 427h122.211c3.032 27.081 7.786 52.184 14.089 73.999 5.21-.014 10.382-.191 15.511-.526-6.181-20.401-11.253-45.209-14.511-73.473h114.64c-2.043 17.725-4.8 34.09-8.096 48.862 5.896-2.908 11.657-6.046 17.274-9.402 2.397-12.533 4.375-25.743 5.911-39.46h44.045c4.691-4.812 9.185-9.816 13.47-15h-56.03c1.587-18.366 2.406-37.493 2.406-57s-.819-38.634-2.406-57h108.519c.855-4.951 1.562-9.952 2.115-15h-112.12c-3.425-30.59-9.047-58.659-16.617-82.313-7.155-22.358-15.57-39.433-24.983-50.904 68.091 10.178 125.476 53.562 155.096 113.091.063-2.284.095-4.575.095-6.873 0-8.49-.432-16.879-1.275-25.146-7.959-11.79-17.111-22.902-27.394-33.185-42.023-42.025-97.898-65.17-157.33-65.17s-115.307 23.145-157.331 65.169-65.169 97.899-65.169 157.331c0 36.604 8.78 71.857 25.342 103.358 8.875 6.071 18.169 11.573 27.831 16.454-10.397-14.65-18.943-30.702-25.293-47.812zm255.92-72c0 20.069-.87 39.14-2.453 57h-117.694c-1.583-17.86-2.453-36.931-2.453-57s.87-39.14 2.453-57h117.693c1.584 17.86 2.454 36.931 2.454 57zm-61.3-207.5c22.876 0 47.815 53.05 57.32 135.5h-114.64c9.505-82.45 34.444-135.5 57.32-135.5zm-30.809 2.282c-9.413 11.471-17.828 28.546-24.983 50.904-7.569 23.654-13.192 51.723-16.617 82.313h-122.211c25.887-69.749 88.259-121.923 163.811-133.217zm-176.691 205.218c0-19.759 2.776-38.883 7.959-57h125.646c-1.587 18.366-2.406 37.493-2.406 57s.819 38.634 2.406 57h-125.646c-5.183-18.117-7.959-37.241-7.959-57z" fill="#a7d0fc"/><path d="m202.144 384.969-108.807-163.493c-37.615-56.52-30.137-131.727 17.87-179.734 55.656-55.656 145.893-55.656 201.549 0 48.007 48.007 55.484 123.214 17.87 179.733l-108.808 163.494c-4.676 7.026-14.998 7.026-19.674 0z" fill="#f44545"/><path d="m237.62 361.226-15.801 23.743c-4.676 7.027-14.999 7.027-19.675 0l-108.807-163.493c-37.615-56.52-30.137-131.727 17.869-179.734 34.377-34.377 81.948-47.52 126.413-39.43-27.523 5.008-53.857 18.151-75.135 39.43-48.007 48.007-55.484 123.214-17.87 179.734z" fill="#c50048"/><path d="m312.424 135.894c0 55.473-44.97 100.443-100.443 100.443s-100.443-44.97-100.443-100.443 44.97-100.443 100.443-100.443 100.443 44.97 100.443 100.443z" fill="#ffc14f"/><path d="m282.424 135.894c0 38.905-31.539 70.443-70.443 70.443s-70.443-31.539-70.443-70.443 31.539-70.443 70.443-70.443 70.443 31.538 70.443 70.443z" fill="#fff5f5"/><path d="m274.5 140c0 5.523-4.477 10-10 10h-55c-5.523 0-10-4.477-10-10v-80c0-5.523 4.477-10 10-10s10 4.477 10 10v70h45c5.523 0 10 4.477 10 10z" fill="#0a3575"/><path d="m232.424 135.894c0 11.291-9.153 20.443-20.443 20.443s-20.443-9.153-20.443-20.443 9.153-20.443 20.443-20.443 20.443 9.152 20.443 20.443z" fill="#ffc14f"/></g></svg>